<?xml version="1.0" encoding="iso-8859-1"?>
<!-- Uploaded to: SVG Repo, www.svgrepo.com, Generator: SVG Repo Mixer Tools -->
<svg height="800px" width="800px" version="1.1" id="Layer_1" xmlns="http://www.w3.org/2000/svg" xmlns:xlink="http://www.w3.org/1999/xlink" 
	 viewBox="0 0 512 512" xml:space="preserve">
<g>
	<path style="fill:#24AE5F;" d="M440.594,187.429c4.681,8.073,7.406,17.426,7.406,27.429c0,30.29-24.567,54.857-54.857,54.857
		c-30.299,0-54.857-24.567-54.857-54.857c0-10.002,2.715-19.355,7.397-27.429H0v320h512v-320H440.594z"/>
	<path style="fill:#1B8746;" d="M461.711,278.857c-15.515,0-29.385-7.04-38.61-18.085c-8.613,5.641-18.898,8.942-29.961,8.942
		c-27.173,0-49.673-19.776-54.034-45.714h-83.109H100.339c0.137,1.509,0.229,3.026,0.229,4.571c0,27.767-22.51,50.286-50.286,50.286
		c-1.545,0-3.063-0.101-4.571-0.229v107.072c9.829-14.802,26.624-24.558,45.714-24.558c30.29,0,54.857,24.567,54.857,54.857
		c0,19.09-9.765,35.895-24.558,45.714h134.272h155.657c-0.128-1.509-0.229-3.026-0.229-4.571c0-27.767,22.519-50.286,50.286-50.286
		c1.545,0,3.063,0.101,4.571,0.229V278.629C464.773,278.757,463.256,278.857,461.711,278.857"/>
	<g>
		<path style="fill:#65DB95;" d="M265.139,417.018c-25.207,0-45.714-20.507-45.714-45.714c0-5.056,4.096-9.143,9.143-9.143
			s9.143,4.087,9.143,9.143c0,15.122,12.306,27.429,27.429,27.429c8.082,0,15.726-3.547,20.955-9.728
			c2.341-2.77,3.419-6.363,3.026-10.103c-0.421-4.014-2.487-7.753-5.687-10.231l-47.817-37.193
			c-7.104-5.522-11.712-13.824-12.645-22.775c-0.914-8.741,1.664-17.198,7.259-23.799c8.704-10.304,21.431-16.21,34.907-16.21
			c25.207,0,45.714,20.517,45.714,45.714c0,5.056-4.096,9.143-9.143,9.143s-9.143-4.087-9.143-9.143
			c0-15.122-12.306-27.429-27.429-27.429c-8.082,0-15.726,3.547-20.955,9.737c-2.341,2.77-3.419,6.354-3.026,10.094
			c0.421,4.023,2.487,7.753,5.687,10.231l47.817,37.202c7.104,5.513,11.712,13.824,12.645,22.766
			c0.914,8.741-1.664,17.198-7.259,23.808C291.343,411.111,278.616,417.018,265.139,417.018"/>
		<path style="fill:#65DB95;" d="M265.139,433.268c-5.047,0-9.143-4.087-9.143-9.143V260.56c0-5.047,4.096-9.143,9.143-9.143
			c5.047,0,9.143,4.096,9.143,9.143v163.566C274.282,429.181,270.186,433.268,265.139,433.268"/>
	</g>
	<g>
		<path style="fill:#F0C419;" d="M447.996,214.857c0,30.29-24.567,54.857-54.857,54.857s-54.857-24.567-54.857-54.857
			S362.849,160,393.139,160S447.996,184.567,447.996,214.857"/>
		<path style="fill:#F0C419;" d="M146.282,416c0,30.29-24.567,54.857-54.857,54.857S36.568,446.29,36.568,416
			s24.567-54.857,54.857-54.857S146.282,385.71,146.282,416"/>
	</g>
	<polygon style="fill:#C03A2B;" points="228.568,96 228.568,187.429 301.711,187.429 301.711,96 347.425,96 265.139,4.571 
		182.854,96 	"/>
</g>
</svg>