<?xml version="1.0" encoding="iso-8859-1"?>
<!-- Uploaded to: SVG Repo, www.svgrepo.com, Generator: SVG Repo Mixer Tools -->
<svg version="1.1" id="Layer_1" xmlns="http://www.w3.org/2000/svg" xmlns:xlink="http://www.w3.org/1999/xlink" 
	 viewBox="0 0 512 512" xml:space="preserve">
<circle style="fill:#272F37;" cx="438.895" cy="354.196" r="65.137"/>
<path style="opacity:0.2;enable-background:new    ;" d="M445.274,412.952c-35.975,0-65.14-29.164-65.14-65.14
	c0-16.363,6.047-31.304,16.01-42.745c-13.714,11.943-22.394,29.517-22.394,49.129c0,35.976,29.164,65.14,65.139,65.14
	c19.613,0,37.188-8.68,49.13-22.394C476.578,406.905,461.637,412.952,445.274,412.952z"/>
<circle style="fill:#B7B9BC;" cx="438.895" cy="354.196" r="37.118"/>
<path style="opacity:0.25;fill:#FFFFFF;enable-background:new    ;" d="M454.075,320.327c-5.013,3.424-8.307,9.18-8.307,15.709
	c0,10.501,8.512,19.012,19.012,19.012c4.155,0,7.988-1.348,11.115-3.61C474.874,337.54,466.206,325.775,454.075,320.327z"/>
<path style="opacity:0.2;enable-background:new    ;" d="M438.89,289.055c-35.975,0-65.139,29.164-65.139,65.139
	c0,4.921,0.563,9.708,1.598,14.317h19.847c5.245,0,10.105-2.757,12.796-7.26c7.626-12.762,21.399-20.575,36.264-20.575h5.335
	c6.082,0,11.612-3.527,14.178-9.041l13.434-28.87c0.151-0.324,0.258-0.657,0.352-0.991
	C466.739,293.786,453.369,289.055,438.89,289.055z"/>
<path style="fill:#00A155;" d="M484.286,288.45c1.395-2.998,0.264-6.56-2.596-8.22c-12.585-7.298-27.205-11.476-42.8-11.476
	c-44.887,0-81.69,34.615-85.173,78.608c-0.292,3.689,2.662,6.835,6.363,6.835h42.198c5.245,0,10.105-2.757,12.796-7.26l0,0
	c7.626-12.762,21.398-20.576,36.264-20.576h5.335c6.082,0,11.612-3.527,14.178-9.041L484.286,288.45z"/>
<path style="opacity:0.15;fill:#FFFFFF;enable-background:new    ;" d="M481.69,280.23c-12.585-7.298-27.205-11.476-42.8-11.476
	c-3.595,0-7.13,0.245-10.608,0.677c2.795,23.022,21.611,41.091,44.972,42.727l11.032-23.707
	C485.681,285.452,484.551,281.889,481.69,280.23z"/>
<circle style="fill:#272F37;" cx="99.512" cy="354.196" r="65.137"/>
<path style="opacity:0.2;enable-background:new    ;" d="M105.9,412.952c-35.976,0-65.14-29.164-65.14-65.14
	c0-16.363,6.047-31.304,16.01-42.745c-13.714,11.943-22.394,29.517-22.394,49.129c0,35.976,29.164,65.14,65.14,65.14
	c19.613,0,37.188-8.68,49.129-22.394C137.205,406.905,122.263,412.952,105.9,412.952z"/>
<circle style="fill:#B7B9BC;" cx="99.512" cy="354.196" r="37.118"/>
<path style="fill:#6A7379;" d="M106.029,370.605l-42.502,3.516c-8.191,0.678-15.212-5.787-15.212-14.006V349.71
	c0-8.218,7.022-14.683,15.212-14.006l42.502,3.516c5.883,0.487,10.409,5.403,10.409,11.306v8.773
	C116.438,365.203,111.912,370.119,106.029,370.605z"/>
<path style="opacity:0.2;enable-background:new    ;" d="M99.516,289.055c-35.975,0-65.14,29.164-65.14,65.139
	c0,4.279,0.425,8.457,1.212,12.506h127.855c0.787-4.049,1.212-8.227,1.212-12.506C164.657,318.22,135.492,289.055,99.516,289.055z"
	/>
<path style="fill:#00A155;" d="M376.841,92.664h-38.256c-16.48,0-29.839,13.359-29.839,29.839l0,0
	c0,16.48,13.359,29.839,29.839,29.839h38.256c2.15,0,3.892-1.743,3.892-3.892V96.556C380.733,94.406,378.99,92.664,376.841,92.664z"
	/>
<rect x="345.727" y="92.658" style="fill:#006539;" width="15.939" height="59.675"/>
<path style="opacity:0.2;fill:#FFFFFF;enable-background:new    ;" d="M376.841,92.664h-38.256c-0.894,0-1.777,0.047-2.651,0.123
	c7.495,17.318,24.728,29.438,44.799,29.438V96.556C380.733,94.406,378.99,92.664,376.841,92.664z"/>
<path style="fill:#006539;" d="M340.518,152.342H328.05c-4.436,0-7.476,4.474-5.842,8.599l30.831,77.815
	c6.375,16.088,4.106,34.316-6.016,48.351l0,0c-15.147,21.003-39.465,33.447-65.36,33.447h-20.825
	c-13.287,0-25.805-6.229-33.819-16.827l-53.78-71.128H37.962l-13.349,78.883c-3.781,22.339,13.435,42.714,36.092,42.714h238.397
	c65.746,0,109.704-67.698,82.954-127.756l-29.529-66.299C350.415,155.397,345.71,152.342,340.518,152.342z"/>
<path style="opacity:0.15;fill:#FFFFFF;enable-background:new    ;" d="M382.056,226.44l-17.773-39.905
	c-3.424,6.005-5.389,12.948-5.389,20.355c0,18.672,12.436,34.431,29.473,39.472C387.069,239.694,384.987,233.021,382.056,226.44z"/>
<polygon style="opacity:0.2;enable-background:new    ;" points="173.24,232.599 37.962,232.599 36.151,243.304 181.334,243.304 "/>
<path style="fill:#272F37;" d="M327.104,138.962h-53.151c-7.389,0-13.379,5.99-13.379,13.379l0,0c0,7.389,5.99,13.379,13.379,13.379
	h53.151c7.389,0,13.379-5.99,13.379-13.379l0,0C340.483,144.953,334.493,138.962,327.104,138.962z"/>
<path style="opacity:0.2;enable-background:new    ;" d="M333.41,159.606h-53.151c-7.389,0-13.379-5.99-13.379-13.379
	c0-2.162,0.525-4.198,1.437-6.007c-4.569,2.128-7.743,6.749-7.743,12.122c0,7.389,5.99,13.379,13.379,13.379h53.151
	c5.227,0,9.741-3.004,11.944-7.373C337.332,159.147,335.427,159.606,333.41,159.606z"/>
<path style="fill:#C39774;" d="M183.036,203.815H143.15c-8.418,0-16.764-1.56-24.613-4.601l0,0
	c-9.426-3.652-19.448-5.526-29.556-5.526H30.868c-7.14,0-12.928,5.788-12.928,12.928v13.054c0,7.14,5.788,12.928,12.928,12.928
	h152.168c5.805,0,10.51-4.706,10.51-10.511v-7.76C193.547,208.521,188.84,203.815,183.036,203.815z"/>
<path style="opacity:0.1;enable-background:new    ;" d="M118.537,199.214c-9.426-3.652-19.448-5.526-29.556-5.526H30.868
	c-7.14,0-12.928,5.788-12.928,12.928v13.054c0,7.14,5.788,12.928,12.928,12.928h85.542l26.739-28.784
	C134.732,203.815,126.386,202.255,118.537,199.214z"/>
<path style="fill:#00A155;" d="M81.903,272.378h34.231c26.968,0,51.505,15.586,62.967,39.997l13.134,27.972
	c3.026,6.445-1.677,13.849-8.796,13.849H25.117c-10.677,0-18.758-9.655-16.877-20.165l0,0
	C14.623,298.352,45.659,272.378,81.903,272.378z"/>
<path style="opacity:0.15;enable-background:new    ;" d="M123.055,313.552H75.978c-4.401,0-7.969-3.568-7.969-7.969
	s3.568-7.969,7.969-7.969h47.076c4.401,0,7.969,3.568,7.969,7.969C131.024,309.984,127.456,313.552,123.055,313.552z"/>
<path style="opacity:0.15;enable-background:new    ;" d="M123.055,334.257H75.978c-4.401,0-7.969-3.568-7.969-7.969
	s3.568-7.969,7.969-7.969h47.076c4.401,0,7.969,3.568,7.969,7.969S127.456,334.257,123.055,334.257z"/>
<path style="opacity:0.15;fill:#FFFFFF;enable-background:new    ;" d="M179.101,312.375
	c-11.342-24.156-35.491-39.661-62.126-39.982c-0.369,2.352-0.564,4.76-0.564,7.215c0,25.508,20.678,46.185,46.185,46.185
	c7.382,0,14.354-1.741,20.542-4.82L179.101,312.375z"/>
<path d="M487.78,299.83l3.731-8.017c3.156-6.778,0.651-14.721-5.823-18.476c-14.16-8.212-30.342-12.552-46.798-12.552
	c-14.517,0-28.496,3.278-41.215,9.561c1.121-15.888-1.617-32.058-8.339-47.149l-28.008-62.885h15.513
	c6.54,0,11.862-5.321,11.862-11.862V96.556c0-6.54-5.321-11.862-11.862-11.862h-38.256c-20.848,0-37.808,16.961-37.808,37.809
	c0,2.881,0.333,5.724,0.969,8.49h-27.793c-11.773,0-21.35,9.577-21.35,21.349c0,11.771,9.577,21.35,21.35,21.35h44.736l26.942,68
	c5.4,13.629,3.504,28.863-5.071,40.754c-13.611,18.873-35.628,30.14-58.897,30.14h-20.825c-10.727,0-20.993-5.108-27.462-13.664
	l-44.771-59.213c7.475-2.369,12.911-9.369,12.911-17.619v-7.763c0-10.19-8.29-18.481-18.48-18.481H143.15
	c-7.462,0-14.774-1.368-21.734-4.063c-10.386-4.023-21.299-6.063-32.435-6.063H30.868c-11.523,0-20.898,9.374-20.898,20.897v13.054
	c0,10.74,8.147,19.606,18.584,20.762l-8.811,52.065c-9.722,11.045-16.598,24.762-19.348,40.131
	c-1.312,7.338,0.679,14.825,5.463,20.542c4.785,5.717,11.804,8.995,19.26,8.995h1.732c3.985,36.577,35.048,65.14,72.667,65.14
	s68.682-28.564,72.667-65.14h126.919c16.682,0,32.716-4.153,46.874-11.781c0.481,2.65,1.691,5.15,3.549,7.162
	c2.712,2.936,6.559,4.619,10.555,4.619h6.143c3.985,36.577,35.048,65.14,72.667,65.14c40.313,0,73.11-32.797,73.11-73.11
	C512,333.161,503.248,313.686,487.78,299.83z M338.585,100.633h34.178v43.74h-25.869c-3.165-7.833-10.836-13.38-19.791-13.38h-8.66
	c-1.129-2.67-1.728-5.546-1.728-8.49C316.716,110.444,326.525,100.633,338.585,100.633z M327.104,157.752h-53.151
	c-2.984,0-5.411-2.427-5.411-5.411c0-2.983,2.427-5.41,5.411-5.41h53.151c2.983,0,5.41,2.427,5.41,5.41
	C332.513,155.325,330.086,157.752,327.104,157.752z M25.909,219.671v-13.054c0-2.734,2.224-4.958,4.959-4.958h58.112
	c9.16,0,18.135,1.678,26.678,4.987c8.803,3.41,18.052,5.139,27.492,5.139h39.887c1.4,0,2.541,1.14,2.541,2.542v7.762
	c0,1.402-1.14,2.542-2.541,2.542H30.868C28.133,224.63,25.909,222.406,25.909,219.671z M99.516,411.367
	c-24.089,0-44.73-14.983-53.135-36.113c0.345,0.364,0.698,0.723,1.07,1.065c4.073,3.749,9.431,5.82,14.931,5.82
	c0.599,0,1.201-0.024,1.802-0.074l42.503-3.516c8.967-0.742,16.16-7.705,17.483-16.383h31.95
	C152.229,389.929,128.335,411.367,99.516,411.367z M56.642,362.165h50.2c-0.437,0.269-0.931,0.454-1.47,0.498l-42.503,3.516
	c-1.715,0.145-3.357-0.422-4.622-1.587C57.507,363.909,56.967,363.079,56.642,362.165z M184.914,345.415
	c-0.235,0.37-0.682,0.811-1.476,0.811H25.117c-2.723,0-5.287-1.198-7.037-3.287c-1.748-2.088-2.476-4.824-1.996-7.505
	c5.711-31.92,33.391-55.087,65.818-55.087h34.229c23.767,0,45.652,13.902,55.753,35.415l13.134,27.973
	C185.358,344.454,185.149,345.046,184.914,345.415z M299.102,346.226h-98.06c0.311-3.12-0.208-6.314-1.594-9.266l-13.134-27.972
	c-12.716-27.081-40.264-44.58-70.181-44.58H81.903c-15.779,0-30.639,4.445-43.309,12.221l6.102-36.06h124.578l51.388,67.966
	c9.465,12.517,24.483,19.991,40.176,19.991h20.825c28.376,0,55.226-13.74,71.824-36.755c11.773-16.324,14.375-37.239,6.961-55.949
	l-25.252-63.734c4.209-1.732,7.731-4.776,10.089-8.616l29.489,66.209c11.46,25.73,9.144,55.195-6.195,78.818
	C353.242,332.123,327.269,346.226,299.102,346.226z M361.823,346.226c0.255-2.474,0.639-4.967,1.143-7.452
	c7.236-6.146,13.651-13.384,18.983-21.595c5.319-8.193,9.316-16.977,11.986-26.067c13.17-9.417,28.654-14.39,44.954-14.39
	c13.169,0,26.121,3.347,37.553,9.692l-12.816,27.541c-1.254,2.694-3.983,4.433-6.953,4.433h-5.336
	c-17.573,0-34.09,9.371-43.105,24.458c-1.245,2.084-3.527,3.378-5.955,3.378h-40.455V346.226z M438.89,411.367
	c-28.819,0-52.712-21.438-56.604-49.201h19.992c8.006,0,15.53-4.268,19.637-11.141c6.153-10.298,17.428-16.694,29.423-16.694h5.336
	c9.144,0,17.546-5.357,21.404-13.648l2.581-5.547c9.884,10.507,15.402,24.293,15.402,39.06
	C496.061,385.72,470.414,411.367,438.89,411.367z"/>
</svg>